<svg width="37" height="37" viewBox="0 0 37 37" fill="none" xmlns="http://www.w3.org/2000/svg">
<circle cx="18.5" cy="18.5" r="18.2075" stroke="#023C40" stroke-width="0.584906"/>
<path d="M24 10H28C28.2652 10 28.5196 10.1054 28.7071 10.2929C28.8946 10.4804 29 10.7348 29 11V27C29 27.2652 28.8946 27.5196 28.7071 27.7071C28.5196 27.8946 28.2652 28 28 28H10C9.73478 28 9.48043 27.8946 9.29289 27.7071C9.10536 27.5196 9 27.2652 9 27V11C9 10.7348 9.10536 10.4804 9.29289 10.2929C9.48043 10.1054 9.73478 10 10 10H14V8H16V10H22V8H24V10ZM27 18H11V26H27V18ZM22 12H16V14H14V12H11V16H27V12H24V14H22V12ZM13 20H15V22H13V20ZM18 20H20V22H18V20ZM23 20H25V22H23V20Z" fill="#023C40"/>
</svg>
