<svg width="60" height="61" viewBox="0 0 60 61" fill="none" xmlns="http://www.w3.org/2000/svg">
<path d="M21.5496 23.3269C21.7865 23.327 22.0146 23.2374 22.1882 23.0762V23.075C22.3656 22.9045 22.4689 22.6711 22.4757 22.4252C22.4825 22.1792 22.3924 21.9404 22.2248 21.7604C22.0571 21.5803 21.8254 21.4733 21.5796 21.4625C21.3338 21.4517 21.0937 21.538 20.9109 21.7027L20.9098 21.7039C20.7722 21.8323 20.6764 21.9991 20.6349 22.1827C20.5934 22.3663 20.6081 22.5582 20.6771 22.7333C20.7462 22.9084 20.8663 23.0587 21.0219 23.1645C21.1776 23.2704 21.3615 23.327 21.5497 23.3269H21.5496Z" fill="#800619"/>
<path d="M24.6504 21.2505C24.7856 21.2505 24.9192 21.2209 25.0417 21.1637C26.4496 20.5177 27.9809 20.1847 29.53 20.1876C29.6261 20.1876 29.7244 20.1887 29.8206 20.1922C30.5578 20.2112 31.291 20.3066 32.0085 20.477C32.0798 20.4944 32.153 20.503 32.2264 20.5028C32.4558 20.5021 32.677 20.4174 32.8481 20.2646C33.0192 20.1119 33.1284 19.9017 33.1549 19.6739C33.1815 19.446 33.1236 19.2164 32.9922 19.0284C32.8609 18.8403 32.6651 18.707 32.4421 18.6536C31.599 18.4528 30.7373 18.3401 29.8709 18.3172C29.7631 18.3149 29.6518 18.3126 29.53 18.3126C28.6094 18.3127 27.6915 18.4125 26.7925 18.6102C25.9202 18.8028 25.0709 19.0877 24.2589 19.4598C24.033 19.5637 23.8577 19.7531 23.7713 19.9862C23.6849 20.2193 23.6947 20.4772 23.7983 20.7032C23.8734 20.8662 23.9934 21.0043 24.1444 21.1013C24.2954 21.1983 24.471 21.25 24.6504 21.2505Z" fill="#800619"/>
<path d="M39.7606 38.4219C41.3407 36.2589 42.1904 33.6487 42.1864 30.97C42.1864 30.861 42.1851 30.7497 42.1829 30.629C42.1628 29.8662 42.0734 29.1068 41.9157 28.3602C41.8703 28.1505 41.7548 27.9626 41.5881 27.8275C41.4214 27.6924 41.2137 27.6182 40.9992 27.6172C40.9334 27.6174 40.8679 27.6241 40.8034 27.6372C40.5602 27.6889 40.3474 27.8351 40.2119 28.0436C40.0763 28.2522 40.0291 28.506 40.0805 28.7493C40.215 29.384 40.2911 30.0296 40.3079 30.6782C40.3101 30.7766 40.3125 30.8751 40.3125 30.97C40.3138 33.2257 39.6071 35.4249 38.292 37.2576C36.9769 39.0903 35.1198 40.4641 32.9825 41.1852C32.3817 41.3925 31.8612 41.7832 31.4944 42.3021C31.1275 42.821 30.9327 43.4419 30.9376 44.0774V44.0938C30.9376 47.9478 29.4066 51.6438 26.6814 54.369C23.9563 57.0941 20.2602 58.6251 16.4063 58.6251C16.118 58.6251 15.8274 58.6169 15.5438 58.6005C15.4197 58.591 15.2949 58.6064 15.1768 58.6457C15.0587 58.6849 14.9496 58.7473 14.8559 58.8292C14.7621 58.9111 14.6856 59.0108 14.6309 59.1226C14.5761 59.2344 14.5441 59.3559 14.5368 59.4802C14.5295 59.6044 14.547 59.7289 14.5883 59.8463C14.6296 59.9637 14.6938 60.0718 14.7773 60.1641C14.8608 60.2564 14.9618 60.3312 15.0745 60.384C15.1872 60.4369 15.3093 60.4668 15.4336 60.472C15.7546 60.4907 16.0816 60.5001 16.4063 60.5001C18.5613 60.5019 20.6955 60.0788 22.6868 59.2549C24.6781 58.4311 26.4875 57.2226 28.0113 55.6988C29.5351 54.175 30.7435 52.3657 31.5674 50.3744C32.3912 48.383 32.8144 46.2488 32.8126 44.0938V44.0774C32.8078 43.8343 32.8796 43.5958 33.0177 43.3956C33.1558 43.1954 33.3534 43.0437 33.5824 42.9618C36.0603 42.1211 38.2181 40.5356 39.7606 38.4219Z" fill="#800619"/>
<path d="M8.88639 56.5262H8.8851C6.17028 54.8835 4.06779 52.3973 2.89875 49.4474C1.72971 46.4974 1.55839 43.2459 2.41095 40.1895C3.26351 37.133 5.09309 34.4397 7.62024 32.5208C10.1474 30.6018 13.2332 29.5629 16.4063 29.5625H16.4262C17.061 29.5663 17.681 29.371 18.1991 29.0043C18.7172 28.6375 19.1074 28.1176 19.3148 27.5176C19.517 26.9194 19.7715 26.3402 20.0754 25.7867C20.1347 25.6788 20.1721 25.5602 20.1855 25.4378C20.199 25.3154 20.1881 25.1915 20.1537 25.0733C20.1193 24.9551 20.0619 24.8448 19.9848 24.7487C19.9077 24.6527 19.8125 24.5727 19.7046 24.5135C19.5966 24.4542 19.478 24.4168 19.3556 24.4034C19.2332 24.39 19.1093 24.4008 18.9911 24.4352C18.8729 24.4697 18.7626 24.5271 18.6665 24.6041C18.5705 24.6812 18.4906 24.7764 18.4313 24.8844C18.0748 25.5348 17.776 26.2151 17.5383 26.9176C17.4563 27.1465 17.3046 27.344 17.1044 27.4821C16.9043 27.6202 16.6658 27.6921 16.4227 27.6875H16.4063C14.2124 27.6832 12.0401 28.1216 10.0196 28.9766C7.09063 30.2205 4.58403 32.2851 2.80201 34.9215C1.08428 37.4635 0.115183 40.437 0.0051643 43.503C-0.104854 46.569 0.648629 49.6043 2.17975 52.2629C3.56756 54.6693 5.53967 56.6869 7.91373 58.1293C8.12632 58.2583 8.38144 58.2975 8.62296 58.2384C8.86449 58.1793 9.07264 58.0267 9.20162 57.8141C9.3306 57.6015 9.36985 57.3464 9.31073 57.1048C9.25162 56.8633 9.09898 56.6552 8.88639 56.5262Z" fill="#800619"/>
<path d="M12.0902 57.9723L12.0891 57.9711C11.9983 57.9432 11.9039 57.9289 11.809 57.929C11.5725 57.9288 11.3447 58.0179 11.1711 58.1785C10.9976 58.3391 10.891 58.5594 10.8729 58.7951C10.8547 59.0309 10.9263 59.2649 11.0732 59.4501C11.2202 59.6354 11.4317 59.7584 11.6654 59.7944C11.8991 59.8304 12.1378 59.7769 12.3337 59.6445C12.5296 59.512 12.6683 59.3105 12.722 59.0802C12.7757 58.8499 12.7405 58.6078 12.6233 58.4024C12.5062 58.197 12.3158 58.0434 12.0902 57.9723Z" fill="#800619"/>
<path d="M29.6625 25.1411C29.5497 25.0389 29.4137 24.9658 29.2662 24.9279C29.1188 24.8901 28.9644 24.8887 28.8163 24.9239C28.6682 24.9592 28.5309 25.0299 28.4163 25.1301C28.3017 25.2302 28.2132 25.3568 28.1585 25.4988C28.1037 25.6408 28.0844 25.794 28.1021 25.9452C28.1198 26.0964 28.1741 26.2409 28.2602 26.3664C28.3463 26.4919 28.4617 26.5946 28.5964 26.6655C28.7311 26.7364 28.881 26.7735 29.0332 26.7735C29.0625 26.7735 29.0941 26.7723 29.1234 26.77C29.3708 26.7457 29.5984 26.6244 29.7565 26.4327C29.9147 26.2409 29.9904 25.9944 29.9672 25.7469C29.9455 25.5138 29.8367 25.2975 29.6625 25.1411Z" fill="#800619"/>
<path d="M25.2234 35.2766C25.7888 35.8428 26.4604 36.2919 27.1995 36.5984C27.9387 36.9048 28.731 37.0625 29.5312 37.0625C29.7376 37.0632 29.9384 36.9952 30.1019 36.8692C30.2872 36.9611 30.4976 36.9896 30.7006 36.95C31.864 36.7228 32.9358 36.1612 33.7847 35.334C34.6337 34.5068 35.2229 33.4499 35.4801 32.2928C35.7374 31.1358 35.6515 29.9288 35.233 28.8198C34.8146 27.7108 34.0817 26.7479 33.1242 26.0492C33.025 25.9749 32.912 25.9211 32.7918 25.8907C32.6716 25.8604 32.5466 25.8542 32.424 25.8725C32.3014 25.8908 32.1836 25.9332 32.0775 25.9974C31.9714 26.0615 31.8791 26.146 31.8059 26.246C31.7327 26.346 31.68 26.4596 31.651 26.5801C31.6219 26.7006 31.6171 26.8257 31.6367 26.9481C31.6563 27.0705 31.7 27.1878 31.7652 27.2932C31.8305 27.3986 31.916 27.49 32.0168 27.5621C32.68 28.0455 33.1877 28.7119 33.4778 29.4796C33.7678 30.2474 33.8275 31.083 33.6496 31.8842C33.4718 32.6854 33.0639 33.4172 32.4762 33.99C31.8885 34.5628 31.1465 34.9517 30.341 35.109C30.1985 35.1366 30.0644 35.1972 29.9495 35.286C29.8198 35.2205 29.6765 35.1868 29.5312 35.1875C28.7106 35.1879 27.9077 34.9489 27.2209 34.4996C26.5341 34.0504 25.9934 33.4105 25.6649 32.6585C25.3365 31.9064 25.2346 31.0749 25.3719 30.2658C25.5091 29.4567 25.8794 28.7052 26.4375 28.1035C26.606 27.9211 26.6954 27.6792 26.6859 27.431C26.6765 27.1828 26.569 26.9484 26.3871 26.7793C26.2045 26.6105 25.9624 26.5209 25.7139 26.5304C25.4654 26.5398 25.2308 26.6475 25.0616 26.8297C23.9902 27.9849 23.4084 29.5105 23.4386 31.0858C23.4688 32.661 24.1086 34.1633 25.2234 35.2766Z" fill="#800619"/>
<path d="M33.2595 23.8352C33.3465 23.9223 33.4499 23.9914 33.5636 24.0385C33.6774 24.0856 33.7993 24.1098 33.9224 24.1098C34.0455 24.1098 34.1674 24.0856 34.2812 24.0385C34.3949 23.9914 34.4983 23.9223 34.5853 23.8352L47.9849 10.4357L50.2368 12.6875L36.8372 26.0871C36.6614 26.2629 36.5626 26.5014 36.5626 26.75C36.5626 26.9987 36.6614 27.2372 36.8372 27.413C37.013 27.5888 37.2515 27.6876 37.5001 27.6876C37.7488 27.6876 37.9872 27.5888 38.1631 27.413L51.5626 14.0134L51.8372 14.288C51.9242 14.375 52.0276 14.4441 52.1413 14.4912C52.2551 14.5383 52.377 14.5626 52.5001 14.5626C52.6232 14.5626 52.7451 14.5383 52.8589 14.4912C52.9726 14.4441 53.076 14.375 53.163 14.288L59.8118 7.63934C59.8989 7.55229 59.9679 7.44893 60.015 7.33519C60.0621 7.22144 60.0864 7.09953 60.0864 6.97641C60.0864 6.85329 60.0621 6.73138 60.015 6.61763C59.9679 6.50389 59.8989 6.40054 59.8118 6.31348L54.1868 0.688481C54.0997 0.601404 53.9964 0.532329 53.8826 0.485202C53.7689 0.438075 53.6469 0.413818 53.5238 0.413818C53.4007 0.413818 53.2787 0.438075 53.165 0.485202C53.0512 0.532329 52.9479 0.601404 52.8608 0.688481L46.2122 7.33711C46.1251 7.42417 46.0561 7.52752 46.009 7.64127C45.9618 7.75501 45.9376 7.87693 45.9376 8.00004C45.9376 8.12316 45.9618 8.24508 46.009 8.35882C46.0561 8.47257 46.1251 8.57592 46.2122 8.66297L46.659 9.10981L33.2595 22.5094C33.1724 22.5964 33.1033 22.6998 33.0562 22.8135C33.0091 22.9273 32.9849 23.0492 32.9849 23.1723C32.9849 23.2954 33.0091 23.4173 33.0562 23.5311C33.1033 23.6448 33.1724 23.7482 33.2595 23.8352ZM53.5237 2.67727L57.823 6.97641L52.5001 12.2993L52.2261 12.0252L48.2009 8.00004L53.5237 2.67727Z" fill="#800619"/>
<path d="M53.4375 8C53.9553 8 54.375 7.58027 54.375 7.0625C54.375 6.54473 53.9553 6.125 53.4375 6.125C52.9197 6.125 52.5 6.54473 52.5 7.0625C52.5 7.58027 52.9197 8 53.4375 8Z" fill="#800619"/>
<path d="M5.8996 43.8996C5.81254 43.9867 5.74348 44.09 5.69637 44.2038C5.64925 44.3175 5.625 44.4394 5.625 44.5625C5.625 44.6857 5.64925 44.8076 5.69637 44.9213C5.74348 45.0351 5.81254 45.1384 5.8996 45.2255L15.2746 54.6005C15.4504 54.7763 15.6889 54.8751 15.9375 54.8751C16.1862 54.8751 16.4246 54.7763 16.6005 54.6005C16.7763 54.4246 16.8751 54.1862 16.8751 53.9375C16.8751 53.6889 16.7763 53.4504 16.6005 53.2746L7.22546 43.8996C7.13841 43.8125 7.03506 43.7435 6.92131 43.6964C6.80756 43.6493 6.68565 43.625 6.56253 43.625C6.43942 43.625 6.3175 43.6493 6.20376 43.6964C6.09001 43.7435 5.98666 43.8125 5.8996 43.8996Z" fill="#800619"/>
<path d="M20.9355 36.3657L11.5605 44.8032C11.4663 44.8848 11.3893 44.9843 11.3341 45.096C11.2788 45.2077 11.2464 45.3292 11.2386 45.4536C11.2309 45.5779 11.248 45.7026 11.289 45.8203C11.33 45.9379 11.3941 46.0462 11.4774 46.1388C11.5607 46.2315 11.6617 46.3065 11.7744 46.3597C11.8871 46.4128 12.0092 46.443 12.1337 46.4484C12.2582 46.4538 12.3825 46.4343 12.4994 46.3911C12.6162 46.3479 12.7233 46.2819 12.8144 46.1968L22.1894 37.7593C22.3688 37.5916 22.4753 37.3602 22.4859 37.1149C22.4966 36.8695 22.4105 36.6298 22.2462 36.4472C22.082 36.2647 21.8526 36.1538 21.6075 36.1386C21.3624 36.1233 21.1211 36.2049 20.9355 36.3657Z" fill="#800619"/>
<path d="M25.0717 39.2479C24.9893 39.1563 24.8897 39.0819 24.7786 39.0289C24.6675 38.9758 24.547 38.9452 24.424 38.9387C24.301 38.9323 24.178 38.9501 24.0619 38.9912C23.9458 39.0323 23.839 39.0958 23.7475 39.1782L14.3725 47.6157C14.2783 47.6973 14.2013 47.7969 14.1461 47.9085C14.0908 48.0202 14.0584 48.1418 14.0506 48.2661C14.0429 48.3905 14.06 48.5151 14.101 48.6328C14.142 48.7504 14.2061 48.8587 14.2894 48.9514C14.3727 49.044 14.4737 49.1191 14.5864 49.1722C14.6991 49.2254 14.8212 49.2555 14.9457 49.2609C15.0702 49.2663 15.1945 49.2469 15.3114 49.2037C15.4282 49.1605 15.5353 49.0944 15.6264 49.0093L25.0014 40.5718C25.0929 40.4895 25.1674 40.39 25.2204 40.2789C25.2735 40.1678 25.3042 40.0474 25.3107 39.9244C25.3173 39.8015 25.2995 39.6784 25.2585 39.5624C25.2175 39.4463 25.154 39.3394 25.0717 39.2479Z" fill="#800619"/>
<path d="M49.7695 40.6555C49.6819 40.6553 49.5947 40.6675 49.5105 40.6918C49.2715 40.7603 49.0695 40.9208 48.9489 41.1381C48.8282 41.3555 48.7988 41.6118 48.8672 41.8508C48.9237 42.0463 49.0421 42.2181 49.2046 42.3407C49.367 42.4632 49.5647 42.5298 49.7682 42.5305C49.8554 42.5307 49.9422 42.5185 50.026 42.4942C50.2432 42.4319 50.4305 42.2933 50.5536 42.104C50.6767 41.9146 50.7273 41.6871 50.6961 41.4634C50.6649 41.2397 50.5539 41.0348 50.3836 40.8864C50.2134 40.7379 49.9953 40.656 49.7694 40.6555H49.7695Z" fill="#800619"/>
<path d="M59.6274 38.1887C59.5109 38.1023 59.3763 38.0436 59.2337 38.0172C59.0912 37.9908 58.9445 37.9973 58.8048 38.0364L53.1165 39.6617C52.8776 39.7302 52.6755 39.8907 52.5549 40.108C52.4342 40.3254 52.4048 40.5817 52.4732 40.8207C52.5298 41.0162 52.6481 41.1881 52.8106 41.3106C52.9731 41.4331 53.1709 41.4997 53.3743 41.5004C53.4616 41.5006 53.5484 41.4884 53.6322 41.4641L58.1251 40.1809V43.8553L46.8751 47.0696V43.2336C46.9915 43.0974 47.0665 42.9307 47.0912 42.7533C47.1158 42.5758 47.0892 42.395 47.0144 42.2322C46.9396 42.0694 46.8197 41.9314 46.669 41.8345C46.5183 41.7377 46.343 41.686 46.1638 41.6856C46.0766 41.6854 45.9898 41.6976 45.906 41.7219L45.6799 41.7864C45.4843 41.8427 45.3123 41.961 45.1897 42.1235C45.0671 42.2861 45.0006 42.484 45.0001 42.6875V53H41.2501C40.2694 53.0046 39.3291 53.3914 38.6289 54.0781C37.9287 54.7648 37.5238 55.6974 37.5001 56.6778C37.4911 57.1717 37.5814 57.6624 37.7656 58.1207C37.9499 58.579 38.2243 58.9956 38.5726 59.3458C38.9306 59.7097 39.3571 59.9991 39.8275 60.1972C40.298 60.3953 40.803 60.4982 41.3134 60.5H42.1876C43.4304 60.4986 44.6219 60.0043 45.5006 59.1255C46.3794 58.2468 46.8737 57.0553 46.8751 55.8125V49.0197L58.1251 45.8054V49.25H54.3751C53.3944 49.2546 52.4541 49.6414 51.7539 50.3281C51.0537 51.0148 50.6488 51.9474 50.6251 52.9278C50.6161 53.4217 50.7064 53.9124 50.8906 54.3707C51.0749 54.829 51.3493 55.2456 51.6976 55.5958C52.0556 55.9597 52.4821 56.2491 52.9525 56.4472C53.423 56.6453 53.928 56.7482 54.4384 56.75H55.3126C56.5554 56.7486 57.7469 56.2543 58.6256 55.3755C59.5044 54.4968 59.9987 53.3053 60.0001 52.0625V38.9375C59.9997 38.7925 59.9659 38.6494 59.9012 38.5196C59.8366 38.3897 59.7429 38.2765 59.6274 38.1887ZM45.0001 55.8125C44.9993 56.5582 44.7027 57.273 44.1754 57.8003C43.6481 58.3276 42.9333 58.6241 42.1876 58.625H41.3134C41.0522 58.6238 40.7938 58.5708 40.5532 58.4691C40.3126 58.3674 40.0945 58.2191 39.9115 58.0326C39.7383 57.8599 39.6016 57.6541 39.5094 57.4275C39.4173 57.2009 39.3716 56.9581 39.3751 56.7135C39.387 56.2233 39.5895 55.7571 39.9396 55.4138C40.2897 55.0705 40.7598 54.8773 41.2501 54.875H45.0001V55.8125ZM58.1251 52.0625C58.1243 52.8082 57.8277 53.523 57.3004 54.0503C56.7731 54.5776 56.0583 54.8741 55.3126 54.875H54.4384C54.1772 54.8738 53.9188 54.8208 53.6782 54.7191C53.4376 54.6174 53.2195 54.4691 53.0365 54.2826C52.8633 54.1099 52.7266 53.9041 52.6344 53.6775C52.5423 53.4509 52.4966 53.2081 52.5001 52.9635C52.512 52.4733 52.7145 52.0071 53.0646 51.6638C53.4147 51.3205 53.8848 51.1273 54.3751 51.125H58.1251V52.0625Z" fill="#800619"/>
<path d="M3.81329 24.875H4.68751C5.93029 24.8736 7.12176 24.3793 8.00054 23.5005C8.87931 22.6217 9.37362 21.4303 9.37501 20.1875V12.6875H12.1875C14.5398 12.6875 15.2589 13.6496 16.8343 15.7578L17.0625 16.0625C17.1806 16.2199 17.3452 16.3362 17.533 16.3949C17.7208 16.4535 17.9223 16.4516 18.109 16.3894C18.2956 16.3272 18.458 16.2078 18.5731 16.0482C18.6881 15.8885 18.75 15.6968 18.75 15.5C18.75 12.4077 18.2695 10.0843 17.2819 8.39715C16.0348 6.26738 14.0054 5.1875 11.25 5.1875H9.37501V4.25C9.37501 4.00136 9.27624 3.7629 9.10043 3.58709C8.92461 3.41127 8.68615 3.3125 8.43751 3.3125C8.18887 3.3125 7.95042 3.41127 7.7746 3.58709C7.59879 3.7629 7.50001 4.00136 7.50001 4.25V17.375H3.75001C2.76939 17.3797 1.82922 17.7665 1.12917 18.4532C0.429112 19.1399 0.0243071 20.0725 0.000715848 21.0528C-0.00902004 21.547 0.0806408 22.0381 0.264375 22.497C0.448109 22.9558 0.72217 23.3731 1.07029 23.724C1.42883 24.0875 1.85584 24.3763 2.32664 24.5739C2.79745 24.7715 3.30272 24.8738 3.81329 24.875ZM9.37501 7.0625H11.25C13.4847 7.0625 16.0011 7.76059 16.6916 12.6114C15.6114 11.5058 14.352 10.8125 12.1875 10.8125H9.37501V7.0625ZM3.75001 19.25H7.50001V20.1875C7.49914 20.9332 7.20255 21.648 6.67529 22.1753C6.14803 22.7025 5.43317 22.9991 4.68751 23H3.81329C3.55187 22.9994 3.29315 22.9471 3.05207 22.8459C2.81098 22.7448 2.59232 22.597 2.40868 22.4109C2.23565 22.2375 2.09923 22.031 2.00756 21.8038C1.91588 21.5766 1.8708 21.3333 1.87501 21.0883C1.88684 20.5981 2.08932 20.1319 2.43944 19.7886C2.78955 19.4454 3.2597 19.2521 3.75001 19.25Z" fill="#800619"/>
<path d="M53.4375 34.2501C53.9553 34.2501 54.375 33.8303 54.375 33.3126C54.375 32.7948 53.9553 32.3751 53.4375 32.3751C52.9197 32.3751 52.5 32.7948 52.5 33.3126C52.5 33.8303 52.9197 34.2501 53.4375 34.2501Z" fill="#800619"/>
<path d="M59.9569 23.774C59.9036 23.6045 59.8033 23.4536 59.6675 23.3389C59.5318 23.2242 59.3662 23.1504 59.1901 23.1262L55.783 22.6575L54.2686 19.7539C54.1894 19.602 54.07 19.4747 53.9234 19.3858C53.7769 19.297 53.6088 19.25 53.4374 19.25C53.266 19.25 53.0979 19.297 52.9514 19.3858C52.8048 19.4747 52.6855 19.602 52.6062 19.7539L51.0918 22.6575L47.6847 23.1262C47.5086 23.1505 47.3431 23.2242 47.2073 23.3389C47.0716 23.4537 46.9713 23.6046 46.918 23.7742C46.8648 23.9437 46.8609 24.1249 46.9067 24.2966C46.9525 24.4683 47.0462 24.6235 47.1768 24.744L49.6105 26.9891L49.0384 30.1453C49.0074 30.3164 49.0246 30.4928 49.088 30.6547C49.1515 30.8166 49.2588 30.9577 49.3978 31.0621C49.5368 31.1666 49.7022 31.2303 49.8754 31.2462C50.0486 31.262 50.2228 31.2294 50.3785 31.1519L53.4374 29.6301L56.496 31.1519C56.6517 31.2294 56.8259 31.262 56.9991 31.2462C57.1723 31.2303 57.3376 31.1666 57.4767 31.0621C57.6157 30.9577 57.723 30.8166 57.7864 30.6547C57.8499 30.4928 57.8671 30.3164 57.836 30.1453L57.2639 26.9891L59.6977 24.744C59.8284 24.6235 59.9222 24.4684 59.9681 24.2966C60.014 24.1249 60.0101 23.9437 59.9569 23.774ZM55.6143 25.9602C55.4982 26.0672 55.4111 26.2018 55.361 26.3515C55.3108 26.5012 55.2993 26.6611 55.3274 26.8165L55.6581 28.6406L53.8549 27.7436C53.7252 27.6791 53.5823 27.6455 53.4374 27.6455C53.2925 27.6455 53.1496 27.6791 53.0199 27.7436L51.2167 28.6406L51.5474 26.8165C51.5756 26.6611 51.564 26.5012 51.5139 26.3515C51.4637 26.2018 51.3766 26.0672 51.2605 25.9602L49.9085 24.7131L51.8269 24.4492C51.9751 24.4287 52.1163 24.3731 52.2386 24.2869C52.3609 24.2008 52.4608 24.0866 52.53 23.9539L53.4374 22.2149L54.3444 23.9539C54.4136 24.0866 54.5135 24.2008 54.6359 24.2869C54.7582 24.3731 54.8994 24.4287 55.0476 24.4492L56.9659 24.7131L55.6143 25.9602Z" fill="#800619"/>
</svg>
