<svg width="37" height="37" viewBox="0 0 37 37" fill="none" xmlns="http://www.w3.org/2000/svg">
<circle cx="18.5" cy="18.5" r="18.2075" stroke="#023C40" stroke-width="0.584906"/>
<path d="M22.728 16.6568L21.314 15.2428L12 24.5568V25.9708H13.414L22.728 16.6568ZM24.142 15.2428L25.556 13.8288L24.142 12.4148L22.728 13.8288L24.142 15.2428ZM14.242 27.9708H10V23.7278L23.435 10.2928C23.6225 10.1053 23.8768 10 24.142 10C24.4072 10 24.6615 10.1053 24.849 10.2928L27.678 13.1218C27.8655 13.3093 27.9708 13.5636 27.9708 13.8288C27.9708 14.094 27.8655 14.3483 27.678 14.5358L14.243 27.9708H14.242Z" fill="#023C40"/>
</svg>
