<svg width="37" height="37" viewBox="0 0 37 37" fill="none" xmlns="http://www.w3.org/2000/svg">
<circle cx="18.5" cy="18.5" r="18.2075" stroke="#023C40" stroke-width="0.584906"/>
<path d="M28 9C28.552 9 29 9.448 29 10V24C29 24.552 28.552 25 28 25H13.455L9 28.5V10C9 9.448 9.448 9 10 9H28ZM27 11H11V24.385L12.763 23H27V11ZM17.515 13.412L17.962 14.1C16.294 15.003 16.323 16.452 16.323 16.764C16.478 16.744 16.641 16.74 16.803 16.755C17.705 16.839 18.416 17.58 18.416 18.5C18.416 19.466 17.632 20.25 16.666 20.25C16.129 20.25 15.616 20.005 15.292 19.66C14.777 19.114 14.5 18.5 14.5 17.505C14.5 15.755 15.728 14.187 17.515 13.412ZM22.515 13.412L22.962 14.1C21.294 15.003 21.323 16.452 21.323 16.764C21.478 16.744 21.641 16.74 21.803 16.755C22.705 16.839 23.416 17.58 23.416 18.5C23.416 19.466 22.632 20.25 21.666 20.25C21.129 20.25 20.616 20.005 20.292 19.66C19.777 19.114 19.5 18.5 19.5 17.505C19.5 15.755 20.728 14.187 22.515 13.412Z" fill="#023C40"/>
</svg>
