<svg width="60" height="60" viewBox="0 0 60 60" fill="none" xmlns="http://www.w3.org/2000/svg">
<path d="M24.9609 39.0594V35.545C22.929 36.1026 20.7851 36.1088 18.75 35.5628V39.066L21.8504 41.1586L24.9609 39.0594Z" fill="#0074AA"/>
<path d="M16.3354 37.4563L17.3437 38.1285V37.0411L16.3354 37.4563Z" fill="#0074AA"/>
<path d="M23.7958 42.4485L23.7995 42.4662L25.1696 43.3935L28.125 39.4255V38.6299L23.085 42.0037L23.7679 42.4521L23.7958 42.4485Z" fill="#0074AA"/>
<path d="M26.3672 38.1219L27.3547 37.4636L26.3672 37.0568V38.1219Z" fill="#0074AA"/>
<path d="M13.4858 6.06309C12.4149 7.20051 11.5921 8.54812 11.0696 10.0204C10.5471 11.4927 10.3363 13.0575 10.4506 14.6155L10.7108 18.3875C10.7135 18.4251 10.7249 18.4616 10.7443 18.494C10.7636 18.5265 10.7902 18.5539 10.822 18.5743C11.0713 18.6734 11.3494 18.7777 11.5933 18.8632L11.9314 14.6363C11.9439 14.4802 11.9875 14.3282 12.0597 14.1893C12.1319 14.0503 12.2312 13.9273 12.3518 13.8274C12.4724 13.7275 12.6117 13.6527 12.7616 13.6076C12.9116 13.5624 13.069 13.5478 13.2247 13.5645L15.101 13.7662C16.9281 13.9613 18.7742 13.6668 20.45 12.9129C22.1257 12.159 23.5706 10.9728 24.6365 9.47606C24.7047 9.38045 24.7956 9.30339 24.9011 9.25187C25.0066 9.20036 25.1233 9.17603 25.2406 9.1811L26.3566 9.23043C27.3835 9.27898 28.376 9.61534 29.2208 10.2011C30.0656 10.7869 30.7286 11.5984 31.1341 12.5431C31.1492 12.5786 31.1613 12.6152 31.1704 12.6527L32.673 18.8465L32.7559 18.7693C32.8427 18.6883 32.8955 18.5774 32.9035 18.4589L33.1686 14.6152C33.3304 12.2685 32.7615 9.92935 31.54 7.91914C30.3185 5.90894 28.5044 4.32639 26.347 3.38901C24.1896 2.45163 21.7949 2.20544 19.4919 2.68427C17.1889 3.1631 15.0907 4.34345 13.4858 6.06309Z" fill="#0074AA"/>
<path d="M15.4688 39.4255L18.4652 43.3935L20.5396 42.0037L15.4688 38.6299V39.4255Z" fill="#0074AA"/>
<path d="M10.1989 19.8363C9.99025 19.7286 9.80711 19.5773 9.66185 19.3928C9.43501 19.4756 9.23232 19.6135 9.07201 19.7941C8.91169 19.9747 8.79879 20.1924 8.74345 20.4274C8.67117 20.7225 8.66069 21.0294 8.71265 21.3288C8.76462 21.6281 8.87791 21.9135 9.04542 22.167C9.21292 22.4205 9.43103 22.6367 9.68604 22.8018C9.94105 22.967 10.2275 23.0777 10.5273 23.127C10.6928 23.1545 10.8437 23.2386 10.9541 23.3648C11.0646 23.4911 11.1279 23.6518 11.1331 23.8195V23.8369C11.1331 25.245 11.4105 26.6393 11.9494 27.9403C12.4882 29.2412 13.278 30.4233 14.2737 31.4189C15.2694 32.4146 16.4515 33.2045 17.7524 33.7433C19.0533 34.2822 20.4477 34.5595 21.8558 34.5595C23.2639 34.5595 24.6582 34.2822 25.9592 33.7433C27.2601 33.2045 28.4422 32.4146 29.4379 31.4189C30.4336 30.4233 31.2234 29.2412 31.7622 27.9403C32.3011 26.6393 32.5785 25.245 32.5785 23.8369V23.8186C32.5735 23.6556 32.6271 23.4963 32.7294 23.3693C32.8317 23.2423 32.976 23.1561 33.1363 23.1263C33.6451 23.0354 34.1055 22.7676 34.436 22.3702C34.7665 21.9728 34.9459 21.4713 34.9425 20.9544C34.9406 20.7765 34.9175 20.5995 34.8735 20.4271C34.8225 20.2041 34.7193 19.9965 34.5722 19.8213C34.4251 19.6462 34.2384 19.5085 34.0276 19.4199C33.9408 19.5584 33.8363 19.6852 33.7168 19.7968L32.7542 20.6953C32.6645 20.7793 32.5543 20.8382 32.4347 20.8663C32.315 20.8944 32.1901 20.8906 32.0724 20.8554C31.9547 20.8201 31.8482 20.7547 31.7637 20.6655C31.6791 20.5763 31.6195 20.4665 31.5906 20.347L29.818 13.043C29.5113 12.3548 29.0194 11.7652 28.3973 11.3402C27.7752 10.9151 27.0473 10.6711 26.2946 10.6355L25.5533 10.6028C24.3267 12.2099 22.7068 13.4738 20.8497 14.2728C18.9925 15.0717 16.9609 15.3787 14.9506 15.1641L13.3139 14.9883L12.9307 19.78C12.9213 19.8933 12.8855 20.0029 12.8262 20.0999C12.7669 20.1969 12.6857 20.2787 12.5891 20.3387C12.3281 20.5004 12.1397 20.6173 10.2585 19.8633C10.2382 19.8555 10.2184 19.8465 10.1989 19.8363Z" fill="#0074AA"/>
<path d="M43.4619 57.5537C45.3625 57.5537 47.2203 56.9901 48.8006 55.9342C50.3808 54.8783 51.6125 53.3776 52.3398 51.6217C53.0671 49.8658 53.2574 47.9337 52.8866 46.0696C52.5159 44.2056 51.6006 42.4934 50.2568 41.1495C48.9129 39.8056 47.2006 38.8904 45.3366 38.5196C43.4726 38.1488 41.5404 38.3391 39.7846 39.0664C38.0287 39.7937 36.5279 41.0254 35.472 42.6057C34.4161 44.1859 33.8525 46.0438 33.8525 47.9443C33.8554 50.492 34.8688 52.9345 36.6702 54.736C38.4717 56.5375 40.9142 57.5508 43.4619 57.5537ZM38.2713 47.1291C38.4016 46.9957 38.5796 46.9195 38.766 46.9173C38.9525 46.9151 39.1321 46.9871 39.2655 47.1173L42.1207 49.9048L47.6583 44.4984C47.724 44.4326 47.8023 44.3805 47.8883 44.3451C47.9744 44.3097 48.0667 44.2917 48.1598 44.2922C48.2528 44.2928 48.3449 44.3118 48.4306 44.3482C48.5162 44.3846 48.5938 44.4376 48.6588 44.5042C48.7239 44.5708 48.775 44.6496 48.8093 44.7362C48.8436 44.8227 48.8604 44.9152 48.8587 45.0082C48.857 45.1013 48.8369 45.1931 48.7994 45.2783C48.7619 45.3635 48.7079 45.4404 48.6405 45.5046L42.6118 51.3905C42.4805 51.5187 42.3042 51.5905 42.1206 51.5905C41.9371 51.5905 41.7608 51.5187 41.6294 51.3905L38.2833 48.1235C38.2172 48.059 38.1644 47.9821 38.1281 47.8972C38.0917 47.8123 38.0724 47.7211 38.0713 47.6288C38.0702 47.5364 38.0873 47.4448 38.1216 47.359C38.1559 47.2733 38.2068 47.1951 38.2713 47.1291Z" fill="#0074AA"/>
<path d="M32.4463 47.9559C32.4386 46.0151 32.9465 44.1071 33.918 42.4271C32.5111 43.3177 31.6406 44.8294 31.4062 46.5027V54.375H34.5069C33.2109 52.5 32.4463 50.3438 32.4463 47.9559Z" fill="#0074AA"/>
<path d="M30.0001 54.375V46.4726C30.0001 46.4531 30.0169 46.4336 30.0184 46.414C30.099 45.502 30.3616 44.6155 30.7906 43.8067C31.2196 42.9979 31.8062 42.2832 32.516 41.7049L29.1283 40.4813L25.9144 44.7693C25.8069 44.9131 25.6484 45.0102 25.4714 45.0406C25.2945 45.0709 25.1126 45.0322 24.9634 44.9324L24.1636 44.4107L26.0107 54.375H30.0001Z" fill="#0074AA"/>
<path d="M17.8595 54.375L19.7364 44.2617L18.7123 44.9387C18.5967 45.015 18.4611 45.0551 18.3226 45.054C18.2134 45.0538 18.1056 45.0281 18.008 44.9791C17.9104 44.93 17.8255 44.8589 17.7601 44.7714L14.544 40.4823L11.1738 41.6979C11.8875 42.2757 12.4781 42.9908 12.9104 43.801C13.3427 44.6111 13.6081 45.4998 13.6908 46.4143C13.6924 46.4338 13.7111 46.453 13.7111 46.4729V54.375H17.8595Z" fill="#0074AA"/>
<path d="M24.6829 54.9028L22.5318 43.311L21.8384 42.8487L21.3696 43.1612L19.188 54.903L21.9354 57.1008L24.6829 54.9028Z" fill="#0074AA"/>
<path d="M12.3047 46.5027C12.0703 44.7614 11.1141 43.1863 9.61043 42.3135C8.10598 43.1864 7.03125 44.7608 6.91406 46.5027V54.375H12.3047V46.5027Z" fill="#0074AA"/>
</svg>
