<svg width="60" height="61" viewBox="0 0 60 61" fill="none" xmlns="http://www.w3.org/2000/svg">
<g clip-path="url(#clip0)">
<path d="M12.8708 58.6494L11.1065 56.1643C10.732 55.6365 10.0004 55.5124 9.4726 55.8871C8.94491 56.2617 8.82069 56.9932 9.19546 57.521L10.9597 60.0062C11.1882 60.3281 11.5494 60.4998 11.9163 60.4998C12.1509 60.4998 12.3878 60.4295 12.5936 60.2833C13.1213 59.9087 13.2456 59.1772 12.8708 58.6494Z" fill="#188006"/>
<path d="M26.3911 59.0872L24.4711 49.9363C23.5375 45.4865 20.9453 41.6388 17.1724 39.1018L13.073 36.3453C11.4293 35.2402 9.21981 35.4779 7.84591 36.8788V22.7583C7.84591 20.9049 6.58228 19.3301 4.77291 18.9285C3.60514 18.669 2.40069 18.9501 1.46777 19.6985C0.534959 20.447 0 21.5623 0 22.7583V40.9284C0 43.3088 0.728435 45.5931 2.10644 47.5343L4.19623 50.4782C4.42475 50.8001 4.78592 50.9718 5.15283 50.9718C5.38744 50.9718 5.62427 50.9014 5.83017 50.7553C6.35787 50.3807 6.48208 49.6492 6.10732 49.1214L4.01752 46.1775C2.92253 44.635 2.34374 42.8199 2.34374 40.9282V22.7583C2.34374 22.2769 2.55913 21.8279 2.9346 21.5265C3.30995 21.2252 3.79475 21.1122 4.26514 21.2166C4.99346 21.3782 5.50217 22.0122 5.50217 22.7583V37.1742C5.50217 39.2149 6.25193 41.1591 7.61399 42.6718C7.67235 42.7417 7.73235 42.811 7.79575 42.8781C8.57399 43.7028 9.48899 44.6745 10.3508 45.5904L11.5572 46.8744C11.5611 46.8785 11.5653 46.8821 11.5693 46.886C12.6014 47.9837 13.3625 48.7943 13.3784 48.8112C13.8213 49.2829 14.5631 49.3063 15.0349 48.8632C15.5067 48.4201 15.53 47.6786 15.0868 47.2068C15.0654 47.184 13.6937 45.7233 12.1271 44.0582L9.44012 41.1985C9.43332 41.1912 9.42711 41.1836 9.42031 41.1763C8.79032 40.4228 8.79817 39.3303 9.45852 38.5847C10.0427 37.9254 11.0346 37.7989 11.7655 38.2903L15.8645 41.0467C19.128 43.2411 21.3699 46.5689 22.1773 50.4176L24.0974 59.5686C24.2133 60.1209 24.7004 60.5 25.2431 60.5C25.3228 60.5 25.4038 60.4918 25.4849 60.4748C26.1183 60.3419 26.524 59.7206 26.3911 59.0872Z" fill="#188006"/>
<path d="M8.68221 52.7488L8.67471 52.7383C8.29854 52.2114 7.56682 52.0891 7.04007 52.465C6.51331 52.8409 6.39097 53.5727 6.76679 54.0995L6.77429 54.11C7.00304 54.4305 7.36339 54.6014 7.72925 54.6014C7.96479 54.6014 8.20256 54.5306 8.40893 54.3833C8.93557 54.0074 9.05803 53.2756 8.68221 52.7488Z" fill="#188006"/>
<path d="M58.532 19.6986C57.5992 18.9502 56.3942 18.6696 55.227 18.9286C53.4177 19.3301 52.1539 20.905 52.1539 22.7584V36.879C50.7801 35.478 48.5704 35.2403 46.9268 36.3454L42.8275 39.1018C39.0544 41.6386 36.4623 45.4865 35.5287 49.9363L33.6087 59.0873C33.4758 59.7207 33.8815 60.3419 34.5149 60.4748C34.596 60.4918 34.6771 60.5 34.7567 60.5C35.2995 60.5 35.7865 60.1208 35.9024 59.5685L37.8224 50.4175C38.6299 46.5689 40.8717 43.2409 44.1351 41.0467L48.2345 38.2904C48.9651 37.7989 49.957 37.9255 50.5414 38.5847C51.2009 39.3294 51.2097 40.4201 50.5821 41.1736C50.5746 41.1819 50.5674 41.1903 50.5599 41.1985C50.5599 41.1985 44.9344 47.1843 44.9132 47.2068C44.4701 47.6786 44.4934 48.4201 44.9651 48.8632C45.4369 49.3063 46.1784 49.283 46.6215 48.8112C46.6374 48.7943 51.4259 43.7029 52.2042 42.8783C52.2676 42.8111 52.3276 42.7418 52.3859 42.6719C53.7479 41.1592 54.4978 39.215 54.4978 37.1743V22.7583C54.4978 22.0121 55.0065 21.3782 55.7349 21.2166C56.2052 21.1123 56.6899 21.2254 57.0654 21.5265C57.4409 21.8278 57.6563 22.2768 57.6563 22.7583V40.9284C57.6563 42.82 57.0775 44.6351 55.9825 46.1777L47.1289 58.6495C46.7543 59.1772 46.8784 59.9088 47.4061 60.2835C47.6121 60.4296 47.8488 60.4999 48.0834 60.4999C48.4502 60.4999 48.8115 60.3281 49.04 60.0063L57.8936 47.5344C59.2716 45.5932 60 43.3089 60 40.9285V22.7583C59.9997 21.5623 59.4649 20.4471 58.532 19.6986Z" fill="#188006"/>
<path d="M44.8423 22.9601L42.7574 22.462V22.0882C44.1125 21.139 45.001 19.5672 45.001 17.7909V15.0804C45.001 12.1884 42.6482 9.83561 39.7562 9.83561C38.4583 9.83561 37.27 10.3105 36.3533 11.0942C35.3326 8.5946 32.8766 6.82812 30.0144 6.82812C27.1487 6.82812 24.6901 8.59917 23.6718 11.1036C22.7536 10.3142 21.561 9.83538 20.2579 9.83538C17.3658 9.83538 15.0131 12.1881 15.0131 15.0802V15.2603V17.7906C15.0131 19.5669 15.9016 21.1388 17.2566 22.088V22.4618L15.1717 22.9599C12.6824 23.5546 10.9438 25.7573 10.9438 28.3167V30.5053C10.9438 31.1525 11.4686 31.6772 12.1157 31.6772H17.5007C17.4924 31.8193 17.4866 31.9622 17.4866 32.1062V36.32C17.4866 36.9672 18.0114 37.4919 18.6585 37.4919H25.7026C26.3497 37.4919 26.8745 36.9672 26.8745 36.32C26.8745 35.6728 26.3497 35.1481 25.7026 35.1481H24.4918V32.7265C24.4918 32.0792 23.9671 31.5546 23.32 31.5546C22.6729 31.5546 22.1481 32.0792 22.1481 32.7265V35.1484H19.8305V32.1064C19.8305 29.8462 21.3656 27.8999 23.5634 27.3732L26.7792 26.6026L28.9314 31.4989C29.1184 31.9244 29.5393 32.1992 30.004 32.1992H30.0041C30.4688 32.1992 30.8898 31.9245 31.0768 31.499L33.2267 26.61L36.4324 27.3758C38.6322 27.9014 40.1687 29.848 40.1687 32.1098V35.1484H37.851V32.7265C37.851 32.0792 37.3263 31.5546 36.6792 31.5546C36.0321 31.5546 35.5073 32.0792 35.5073 32.7265V35.1484H34.1792C33.5321 35.1484 33.0074 35.673 33.0074 36.3202C33.0074 36.9675 33.5321 37.4921 34.1792 37.4921H41.3406C41.9878 37.4921 42.5125 36.9675 42.5125 36.3202V32.1098C42.5125 31.9646 42.5067 31.8207 42.4982 31.6774H47.8984C48.5455 31.6774 49.0703 31.1528 49.0703 30.5055V28.3169C49.0703 25.7576 47.3317 23.5547 44.8423 22.9601ZM39.7562 12.1791C41.2915 12.1791 42.552 13.3781 42.6509 14.8888H41.0217C39.652 14.8888 38.3041 14.5591 37.0925 13.9312C37.5382 12.9013 38.5645 12.1791 39.7562 12.1791ZM36.8551 17.6195C36.8565 17.5625 36.8594 17.5056 36.8594 17.4482V16.4045C38.1744 16.9487 39.5885 17.2326 41.0217 17.2326H42.6572V17.7907C42.6572 19.3903 41.3559 20.6918 39.7562 20.6918C38.1564 20.6918 36.8551 19.3903 36.8551 17.7906V17.6195ZM25.5132 13.673C25.5132 11.1911 27.5324 9.17187 30.0144 9.17187C32.253 9.17187 34.115 10.8146 34.4588 12.9577L32.486 11.7986C31.9925 11.5087 31.3618 11.6176 30.9942 12.0564C30.0301 13.207 28.6162 13.8668 27.1151 13.8668H25.5132V13.673ZM20.258 12.1791C21.4497 12.1791 22.4759 12.9015 22.9217 13.9311C21.7099 14.559 20.3622 14.8887 18.9925 14.8887H17.3632C17.4621 13.3781 18.7227 12.1791 20.258 12.1791ZM17.3569 17.2325H18.9925C20.4272 17.2325 21.8428 16.948 23.1591 16.4027V17.7905C23.1591 19.3901 21.8577 20.6916 20.258 20.6916C18.6583 20.6916 17.3569 19.3903 17.3569 17.7906V17.2325ZM23.0173 25.094C20.7117 25.6464 18.8998 27.2538 18.0374 29.3335H13.2876V28.3168C13.2876 26.8466 14.2863 25.5811 15.7163 25.2395L18.7008 24.5265C19.2283 24.4006 19.6005 23.9291 19.6005 23.3868V22.9928C19.8161 23.0199 20.0352 23.0354 20.258 23.0354C20.4791 23.0354 20.6967 23.0201 20.9107 22.9934V23.3277C20.9099 23.3452 20.9095 23.3626 20.9094 23.3801C20.9092 23.7646 21.0982 24.1412 21.4453 24.3658C21.5761 24.4505 21.7174 24.5056 21.8617 24.5331L23.6098 24.9519L23.0173 25.094ZM26.2861 23.2747C25.985 23.142 25.6712 23.0358 25.3478 22.9583L23.2543 22.4567V22.0915C23.6322 21.8275 23.9738 21.5154 24.27 21.1636C24.7934 21.9699 25.481 22.6593 26.2861 23.1844V23.2747ZM31.3758 24.9966L30.0044 28.1155L28.6299 24.9886V24.1524C29.0773 24.2446 29.5403 24.2932 30.0144 24.2932C30.4805 24.2932 30.9356 24.246 31.3758 24.1568V24.9966ZM30.0144 21.9494C27.5324 21.9495 25.5132 19.9302 25.5132 17.4482V16.2105H27.1151C28.9734 16.2105 30.7404 15.5194 32.0946 14.2868L34.5112 15.7067V17.6196C34.4207 20.0223 32.439 21.9494 30.0144 21.9494ZM33.7195 23.2785V23.1992C34.5311 22.6744 35.2249 21.9832 35.7523 21.1735C36.0466 21.5213 36.3853 21.8299 36.7594 22.0915V22.4567L34.6659 22.9583C34.3397 23.0366 34.0231 23.1441 33.7195 23.2785ZM46.7264 29.3335H41.9604C41.0972 27.2538 39.284 25.6473 36.9771 25.0962L36.3887 24.9557L38.1461 24.5345C38.2924 24.5073 38.436 24.4515 38.5686 24.3658C38.9151 24.1416 39.1035 23.7649 39.1035 23.3804C39.1035 23.3713 39.1034 23.362 39.1032 23.3529V22.9934C39.3173 23.0201 39.5348 23.0354 39.7559 23.0354C39.9787 23.0354 40.1978 23.0199 40.4135 22.9928V23.3868C40.4135 23.9291 40.7856 24.4006 41.3131 24.5265L44.2976 25.2395C45.7277 25.5812 46.7264 26.8466 46.7264 28.3168V29.3335Z" fill="#188006"/>
<path d="M30.8284 35.4909C30.6094 35.2729 30.3082 35.1487 30 35.1487C29.6905 35.1487 29.3895 35.2729 29.1715 35.4909C28.9523 35.71 28.8281 36.0112 28.8281 36.3206C28.8281 36.6288 28.9523 36.9299 29.1715 37.1491C29.3895 37.367 29.6906 37.4924 30 37.4924C30.3082 37.4924 30.6094 37.367 30.8284 37.1491C31.0464 36.9299 31.1719 36.6288 31.1719 36.3206C31.1719 36.0112 31.0465 35.71 30.8284 35.4909Z" fill="#188006"/>
<path d="M29.999 0.5C29.3519 0.5 28.8271 1.02465 28.8271 1.67187V3.42534C28.8271 4.07256 29.3519 4.59721 29.999 4.59721C30.6461 4.59721 31.1709 4.07256 31.1709 3.42534V1.67187C31.1709 1.02465 30.6463 0.5 29.999 0.5Z" fill="#188006"/>
<path d="M25.682 4.32249L24.4527 3.09437C23.9949 2.63687 23.253 2.63722 22.7955 3.09507C22.338 3.55292 22.3385 4.29495 22.7963 4.75233L24.0257 5.98045C24.2545 6.20909 24.5542 6.32334 24.8539 6.32334C25.154 6.32334 25.454 6.20873 25.6829 5.97975C26.1401 5.5219 26.1399 4.77987 25.682 4.32249Z" fill="#188006"/>
<path d="M37.1745 3.1244C36.7166 2.66702 35.9745 2.66725 35.5172 3.12522L34.2974 4.34619C33.84 4.80404 33.8404 5.54607 34.2982 6.00345C34.5271 6.23209 34.8267 6.34634 35.1265 6.34634C35.4266 6.34634 35.7267 6.23173 35.9555 6.00263L37.1753 4.78166C37.6327 4.32381 37.6323 3.58178 37.1745 3.1244Z" fill="#188006"/>
</g>
<defs>
<clipPath id="clip0">
<rect width="60" height="60" fill="white" transform="translate(0 0.5)"/>
</clipPath>
</defs>
</svg>
